<?xml version="1.0" encoding="UTF-8"?>
<svg width="54px" height="54px" viewBox="0 0 54 54" version="1.1" xmlns="http://www.w3.org/2000/svg" xmlns:xlink="http://www.w3.org/1999/xlink">
    <!-- Generator: Sketch 53.2 (72643) - https://sketchapp.com -->
    <title>ant-design:check-circle-outline</title>
    <desc>Created with Sketch.</desc>
    <g id="Page-1" stroke="none" stroke-width="1" fill="none" fill-rule="evenodd">
        <g id="success" transform="translate(-485.000000, -515.000000)" fill-rule="nonzero">
            <g id="ant-design:check-circle-outline" transform="translate(482.000000, 512.000000)">
                <g id="Icon" transform="translate(3.000000, 3.000000)" fill="#4F9B3F">
                    <path d="M37.9570312,17.6835938 L35.2089844,17.6835938 C34.6113281,17.6835938 34.0429687,17.9707031 33.6914062,18.4628906 L24.4804687,31.2363281 L20.3085937,25.4472656 C19.9570312,24.9609375 19.3945312,24.6679688 18.7910156,24.6679688 L16.0429687,24.6679688 C15.6621094,24.6679688 15.4394531,25.1015625 15.6621094,25.4121094 L22.9628906,35.5371094 C23.3128038,36.0254948 23.87674,36.3151915 24.4775391,36.3151915 C25.0783381,36.3151915 25.6422743,36.0254948 25.9921875,35.5371094 L38.3320312,18.4277344 C38.5605469,18.1171875 38.3378906,17.6835938 37.9570312,17.6835938 Z" id="Icon-Path"></path>
                    <path d="M27,0.75 C12.5039063,0.75 0.75,12.5039063 0.75,27 C0.75,41.4960938 12.5039063,53.25 27,53.25 C41.4960938,53.25 53.25,41.4960938 53.25,27 C53.25,12.5039063 41.4960938,0.75 27,0.75 Z M27,48.796875 C14.9648438,48.796875 5.203125,39.0351562 5.203125,27 C5.203125,14.9648438 14.9648438,5.203125 27,5.203125 C39.0351562,5.203125 48.796875,14.9648438 48.796875,27 C48.796875,39.0351562 39.0351562,48.796875 27,48.796875 Z" id="Icon-Shape"></path>
                </g>
                <rect id="ViewBox" x="0" y="0" width="60" height="60"></rect>
            </g>
        </g>
    </g>
</svg>