<?xml version="1.0" encoding="UTF-8"?>
<svg width="14px" height="12px" viewBox="0 0 14 12" version="1.1" xmlns="http://www.w3.org/2000/svg" xmlns:xlink="http://www.w3.org/1999/xlink">
    <!-- Generator: Sketch 53.2 (72643) - https://sketchapp.com -->
    <title>ant-design:wifi-outline</title>
    <desc>Created with Sketch.</desc>
    <g id="Page-1" stroke="none" stroke-width="1" fill="none" fill-rule="evenodd">
        <g id="single-room" transform="translate(-186.000000, -797.000000)" fill-rule="nonzero">
            <g id="ant-design:wifi-outline" transform="translate(185.000000, 795.000000)">
                <g id="Icon" fill="#272E31">
                    <path d="M11.296875,9.6953125 C10.41875,8.93125 9.271875,8.46875 8.015625,8.46875 C6.759375,8.46875 5.6125,8.93125 4.7328125,9.696875 C4.68233037,9.74238811 4.67681175,9.81964883 4.7203125,9.871875 L5.2828125,10.5421875 C5.328125,10.5953125 5.4078125,10.6015625 5.4609375,10.55625 C6.1421875,9.95625 7.0359375,9.59375 8.015625,9.59375 C8.9953125,9.59375 9.8890625,9.95625 10.5703125,10.5546875 C10.6234375,10.6 10.703125,10.59375 10.7484375,10.540625 L11.3109375,9.8703125 C11.3546875,9.81875 11.3484375,9.740625 11.296875,9.6953125 Z M13.13125,7.50625 C11.7453125,6.3515625 9.9625,5.65625 8.015625,5.65625 C6.06875,5.65625 4.2859375,6.3515625 2.8984375,7.50625 C2.84560072,7.55081368 2.83862295,7.62966242 2.8828125,7.6828125 L3.4453125,8.353125 C3.4890625,8.40625 3.56875,8.4125 3.6203125,8.36875 C4.8125,7.378125 6.3453125,6.78125 8.015625,6.78125 C9.6859375,6.78125 11.21875,7.378125 12.409375,8.36875 C12.4625,8.4125 12.540625,8.40625 12.584375,8.353125 L13.146875,7.6828125 C13.190625,7.6296875 13.184375,7.55 13.13125,7.50625 L13.13125,7.50625 Z M14.9546875,5.334375 C13.0578125,3.778125 10.6296875,2.84375 7.984375,2.84375 C5.35625,2.84375 2.94375,3.765625 1.0515625,5.303125 C1.02529978,5.3242249 1.00866573,5.35503228 1.00543009,5.38856535 C1.00219444,5.42209842 1.01263116,5.45551789 1.034375,5.48125 L1.596875,6.1515625 C1.640625,6.203125 1.71875,6.2109375 1.7703125,6.16875 C3.46875,4.7921875 5.6296875,3.96875 7.984375,3.96875 C10.35625,3.96875 12.53125,4.8046875 14.234375,6.1984375 C14.2875,6.2421875 14.365625,6.234375 14.409375,6.18125 L14.971875,5.5109375 C15.0171875,5.4578125 15.009375,5.378125 14.9546875,5.334375 Z M7,12.15625 C7,12.7085347 7.44771525,13.15625 8,13.15625 C8.55228475,13.15625 9,12.7085347 9,12.15625 C9,11.6039653 8.55228475,11.15625 8,11.15625 C7.44771525,11.15625 7,11.6039653 7,12.15625 Z" id="Icon-Shape"></path>
                </g>
                <rect id="ViewBox" x="0" y="0" width="16" height="16"></rect>
            </g>
        </g>
    </g>
</svg>