<?xml version="1.0" encoding="UTF-8"?>
<svg width="20px" height="23px" viewBox="0 0 20 23" version="1.1" xmlns="http://www.w3.org/2000/svg" xmlns:xlink="http://www.w3.org/1999/xlink">
    <!-- Generator: Sketch 53.2 (72643) - https://sketchapp.com -->
    <title>fa-regular:calendar-alt</title>
    <desc>Created with Sketch.</desc>
    <g id="Page-1" stroke="none" stroke-width="1" fill="none" fill-rule="evenodd">
        <g id="reservation" transform="translate(-905.000000, -459.000000)" fill-rule="nonzero">
            <g id="fa-regular:calendar-alt" transform="translate(905.000000, 459.000000)">
                <g id="Icon" fill="#4C5356">
                    <path d="M6.60714286,12.8571429 L4.82142857,12.8571429 C4.52678571,12.8571429 4.28571429,12.6160714 4.28571429,12.3214286 L4.28571429,10.5357143 C4.28571429,10.2410714 4.52678571,10 4.82142857,10 L6.60714286,10 C6.90178571,10 7.14285714,10.2410714 7.14285714,10.5357143 L7.14285714,12.3214286 C7.14285714,12.6160714 6.90178571,12.8571429 6.60714286,12.8571429 Z M11.4285714,12.3214286 L11.4285714,10.5357143 C11.4285714,10.2410714 11.1875,10 10.8928571,10 L9.10714286,10 C8.8125,10 8.57142857,10.2410714 8.57142857,10.5357143 L8.57142857,12.3214286 C8.57142857,12.6160714 8.8125,12.8571429 9.10714286,12.8571429 L10.8928571,12.8571429 C11.1875,12.8571429 11.4285714,12.6160714 11.4285714,12.3214286 Z M15.7142857,12.3214286 L15.7142857,10.5357143 C15.7142857,10.2410714 15.4732143,10 15.1785714,10 L13.3928571,10 C13.0982143,10 12.8571429,10.2410714 12.8571429,10.5357143 L12.8571429,12.3214286 C12.8571429,12.6160714 13.0982143,12.8571429 13.3928571,12.8571429 L15.1785714,12.8571429 C15.4732143,12.8571429 15.7142857,12.6160714 15.7142857,12.3214286 Z M11.4285714,16.6071429 L11.4285714,14.8214286 C11.4285714,14.5267857 11.1875,14.2857143 10.8928571,14.2857143 L9.10714286,14.2857143 C8.8125,14.2857143 8.57142857,14.5267857 8.57142857,14.8214286 L8.57142857,16.6071429 C8.57142857,16.9017857 8.8125,17.1428571 9.10714286,17.1428571 L10.8928571,17.1428571 C11.1875,17.1428571 11.4285714,16.9017857 11.4285714,16.6071429 Z M7.14285714,16.6071429 L7.14285714,14.8214286 C7.14285714,14.5267857 6.90178571,14.2857143 6.60714286,14.2857143 L4.82142857,14.2857143 C4.52678571,14.2857143 4.28571429,14.5267857 4.28571429,14.8214286 L4.28571429,16.6071429 C4.28571429,16.9017857 4.52678571,17.1428571 4.82142857,17.1428571 L6.60714286,17.1428571 C6.90178571,17.1428571 7.14285714,16.9017857 7.14285714,16.6071429 Z M15.7142857,16.6071429 L15.7142857,14.8214286 C15.7142857,14.5267857 15.4732143,14.2857143 15.1785714,14.2857143 L13.3928571,14.2857143 C13.0982143,14.2857143 12.8571429,14.5267857 12.8571429,14.8214286 L12.8571429,16.6071429 C12.8571429,16.9017857 13.0982143,17.1428571 13.3928571,17.1428571 L15.1785714,17.1428571 C15.4732143,17.1428571 15.7142857,16.9017857 15.7142857,16.6071429 Z M20,5 L20,20.7142857 C20,21.8973214 19.0401786,22.8571429 17.8571429,22.8571429 L2.14285714,22.8571429 C0.959821429,22.8571429 0,21.8973214 0,20.7142857 L0,5 C0,3.81696429 0.959821429,2.85714286 2.14285714,2.85714286 L4.28571429,2.85714286 L4.28571429,0.535714286 C4.28571429,0.241071429 4.52678571,0 4.82142857,0 L6.60714286,0 C6.90178571,0 7.14285714,0.241071429 7.14285714,0.535714286 L7.14285714,2.85714286 L12.8571429,2.85714286 L12.8571429,0.535714286 C12.8571429,0.241071429 13.0982143,0 13.3928571,0 L15.1785714,0 C15.4732143,0 15.7142857,0.241071429 15.7142857,0.535714286 L15.7142857,2.85714286 L17.8571429,2.85714286 C19.0401786,2.85714286 20,3.81696429 20,5 Z M17.8571429,20.4464286 L17.8571429,7.14285714 L2.14285714,7.14285714 L2.14285714,20.4464286 C2.14285714,20.59375 2.26339286,20.7142857 2.41071429,20.7142857 L17.5892857,20.7142857 C17.7366071,20.7142857 17.8571429,20.59375 17.8571429,20.4464286 Z" id="Icon-Shape"></path>
                </g>
                <rect id="ViewBox" x="0" y="0" width="20" height="22.8571429"></rect>
            </g>
        </g>
    </g>
</svg>