<?xml version="1.0" encoding="UTF-8"?>
<svg width="13px" height="18px" viewBox="0 0 13 18" version="1.1" xmlns="http://www.w3.org/2000/svg" xmlns:xlink="http://www.w3.org/1999/xlink">
    <!-- Generator: Sketch 53.2 (72643) - https://sketchapp.com -->
    <title>fa-solid:baby</title>
    <desc>Created with Sketch.</desc>
    <g id="Page-1" stroke="none" stroke-width="1" fill="none" fill-rule="evenodd">
        <g id="single-room" transform="translate(-445.000000, -870.000000)" fill-rule="nonzero">
            <g id="fa-solid:baby" transform="translate(445.000000, 870.000000)">
                <g id="Icon" fill="#C2C2C2">
                    <path d="M6.5,5.41666667 C7.99635417,5.41666667 9.20833333,4.2046875 9.20833333,2.70833333 C9.20833333,1.21197917 7.99635417,0 6.5,0 C5.00364583,0 3.79166667,1.21197917 3.79166667,2.70833333 C3.79166667,4.2046875 5.00364583,5.41666667 6.5,5.41666667 Z M4.6921875,13.8395833 L5.55885417,12.75625 L3.47682292,11.0229167 L1.92291667,12.9661458 C1.53697917,13.446875 1.52682292,14.1307292 1.89583333,14.625 L3.52083333,16.7916667 C3.78828125,17.1471354 4.19453125,17.3333333 4.60416667,17.3333333 C4.88515625,17.3333333 5.17291667,17.2453125 5.41666667,17.0625 C6.01588542,16.615625 6.134375,15.7658854 5.6875,15.1666667 L4.6921875,13.8395833 Z M9.52317708,11.0229167 L7.44114583,12.75625 L8.3078125,13.8395833 L7.3125,15.1666667 C6.865625,15.7658854 6.98411458,16.615625 7.58333333,17.0625 C7.82708333,17.2453125 8.11145833,17.3333333 8.39583333,17.3333333 C8.80885417,17.3333333 9.21510417,17.1471354 9.47916667,16.7916667 L11.1041667,14.625 C11.4731771,14.1307292 11.4630208,13.446875 11.0770833,12.9661458 L9.52317708,11.0229167 L9.52317708,11.0229167 Z M12.7528646,4.90885417 C12.3229167,4.29609375 11.4799479,4.15052083 10.8671875,4.57708333 L9.49270833,5.54192708 C7.70859375,6.79453125 5.28802083,6.79453125 3.50729167,5.54192708 L2.1328125,4.58046875 C1.52005208,4.15052083 0.677083333,4.29947917 0.247135417,4.90885417 C-0.1828125,5.52161458 -0.0338541667,6.36458333 0.575520833,6.79453125 L1.95,7.759375 C2.52552083,8.16223958 3.1484375,8.46692708 3.79166667,8.70390625 L3.79166667,9.75 L9.20833333,9.75 L9.20833333,8.70729167 C9.8515625,8.4703125 10.4744792,8.165625 11.05,7.76276042 L12.4244792,6.79791667 C13.0372396,6.36458333 13.1828125,5.52161458 12.7528646,4.90885417 Z" id="Icon-Shape"></path>
                </g>
                <rect id="ViewBox" x="0" y="0" width="13" height="17.3333333"></rect>
            </g>
        </g>
    </g>
</svg>