<?xml version="1.0" encoding="UTF-8"?>
<svg width="20px" height="12px" viewBox="0 0 20 12" version="1.1" xmlns="http://www.w3.org/2000/svg" xmlns:xlink="http://www.w3.org/1999/xlink">
    <!-- Generator: Sketch 53.2 (72643) - https://sketchapp.com -->
    <title>fa-solid:bed</title>
    <desc>Created with Sketch.</desc>
    <g id="Page-1" stroke="none" stroke-width="1" fill="none" fill-rule="evenodd">
        <g id="single-room" transform="translate(-312.000000, -468.000000)" fill-rule="nonzero">
            <g id="fa-solid:bed" transform="translate(312.000000, 466.000000)">
                <g id="Icon" fill="#4C5356">
                    <path d="M5.5,8 C6.8784375,8 8,6.8784375 8,5.5 C8,4.1215625 6.8784375,3 5.5,3 C4.1215625,3 3,4.1215625 3,5.5 C3,6.8784375 4.1215625,8 5.5,8 Z M16.5,4 L9.5,4 C9.22375,4 9,4.22375 9,4.5 L9,9 L2,9 L2,2.5 C2,2.22375 1.77625,2 1.5,2 L0.5,2 C0.22375,2 0,2.22375 0,2.5 L0,13.5 C0,13.77625 0.22375,14 0.5,14 L1.5,14 C1.77625,14 2,13.77625 2,13.5 L2,12 L18,12 L18,13.5 C18,13.77625 18.22375,14 18.5,14 L19.5,14 C19.77625,14 20,13.77625 20,13.5 L20,7.5 C20,5.566875 18.433125,4 16.5,4 Z" id="Icon-Shape"></path>
                </g>
                <rect id="ViewBox" x="0" y="0" width="20" height="16"></rect>
            </g>
        </g>
    </g>
</svg>