<?xml version="1.0" encoding="UTF-8"?>
<svg width="36px" height="41px" viewBox="0 0 36 41" version="1.1" xmlns="http://www.w3.org/2000/svg" xmlns:xlink="http://www.w3.org/1999/xlink">
    <!-- Generator: Sketch 53.2 (72643) - https://sketchapp.com -->
    <title>Group 11</title>
    <desc>Created with Sketch.</desc>
    <g id="Page-1" stroke="none" stroke-width="1" fill="none" fill-rule="evenodd" stroke-linecap="round">
        <g id="single-room" transform="translate(-494.000000, -45.000000)" stroke="#495156" stroke-width="2">
            <g id="Group-11" transform="translate(495.000000, 46.000000)">
                <path d="M23.4281008,-3.55271368e-15 L11.9934462,14.3892753 C10.2754404,16.5511997 10.6353075,19.6965046 12.7972319,21.4145104 C13.6817271,22.1173879 14.7781918,22.5 15.9079566,22.5 L29.3902946,22.5 C31.5994336,22.5 33.3902946,24.290861 33.3902946,26.5 C33.3902946,26.5515911 33.3892965,26.6031774 33.3873008,26.6547299 L33.0832618,34.5087108 C33.0017723,36.6137616 31.3015807,38.2948202 29.1957424,38.3524822 L5.54813647,39" id="Path-Copy" transform="translate(19.469216, 19.500000) scale(-1, 1) translate(-19.469216, -19.500000) "></path>
                <path d="M14.4896697,-1.0658141e-14 L2.50461496,14.2864924 C0.729843737,16.4020652 1.00611799,19.5558122 3.12169078,21.3305834 C4.02212309,22.0859634 5.15987828,22.5 6.33519835,22.5 L19.7110087,22.5 C21.8819913,22.5 23.6566517,24.231726 23.7098094,26.4020577 L23.8996295,34.1520577 C23.9537215,36.3605344 22.2072477,38.1947087 19.998771,38.2488007 C19.9661297,38.2496002 19.9334798,38.25 19.9008287,38.25 L-1.95399252e-14,38.25" id="Path-Copy-5"></path>
            </g>
        </g>
    </g>
</svg>