<?xml version="1.0" encoding="UTF-8"?>
<svg width="14px" height="14px" viewBox="0 0 14 14" version="1.1" xmlns="http://www.w3.org/2000/svg" xmlns:xlink="http://www.w3.org/1999/xlink">
    <!-- Generator: Sketch 53.2 (72643) - https://sketchapp.com -->
    <title>ic-baseline-ac-unit</title>
    <desc>Created with Sketch.</desc>
    <g id="Page-1" stroke="none" stroke-width="1" fill="none" fill-rule="evenodd">
        <g id="single-room" transform="translate(-446.000000, -798.000000)" fill-rule="nonzero">
            <g id="ic-baseline-ac-unit" transform="translate(445.000000, 797.000000)">
                <g id="Icon" fill="#272E31">
                    <polygon id="Icon-Path" points="14.6666667 7.33333333 11.8866667 7.33333333 14.0466667 5.17333333 13.1066667 4.22666667 10 7.33333333 8.66666667 7.33333333 8.66666667 6 11.7733333 2.89333333 10.8266667 1.95333333 8.66666667 4.11333333 8.66666667 1.33333333 7.33333333 1.33333333 7.33333333 4.11333333 5.17333333 1.95333333 4.22666667 2.89333333 7.33333333 6 7.33333333 7.33333333 6 7.33333333 2.89333333 4.22666667 1.95333333 5.17333333 4.11333333 7.33333333 1.33333333 7.33333333 1.33333333 8.66666667 4.11333333 8.66666667 1.95333333 10.8266667 2.89333333 11.7733333 6 8.66666667 7.33333333 8.66666667 7.33333333 10 4.22666667 13.1066667 5.17333333 14.0466667 7.33333333 11.8866667 7.33333333 14.6666667 8.66666667 14.6666667 8.66666667 11.8866667 10.8266667 14.0466667 11.7733333 13.1066667 8.66666667 10 8.66666667 8.66666667 10 8.66666667 13.1066667 11.7733333 14.0466667 10.8266667 11.8866667 8.66666667 14.6666667 8.66666667"></polygon>
                </g>
                <rect id="ViewBox" x="0" y="0" width="16" height="16"></rect>
            </g>
        </g>
    </g>
</svg>