<?xml version="1.0" encoding="UTF-8"?>
<svg width="15px" height="15px" viewBox="0 0 15 15" version="1.1" xmlns="http://www.w3.org/2000/svg" xmlns:xlink="http://www.w3.org/1999/xlink">
    <!-- Generator: Sketch 53.2 (72643) - https://sketchapp.com -->
    <title>icomoon-free:phone</title>
    <desc>Created with Sketch.</desc>
    <g id="Page-1" stroke="none" stroke-width="1" fill="none" fill-rule="evenodd">
        <g id="single-room" transform="translate(-49.000000, -869.000000)" fill-rule="nonzero">
            <g id="icomoon-free:phone" transform="translate(49.000000, 868.000000)">
                <g id="Icon" fill="#272E31">
                    <path d="M11,10 C10,11 10,12 9,12 C8,12 7,11 6,10 C5,9 4,8 4,7 C4,6 5,6 6,5 C7,4 4,1 3,1 C2,1 0,4 0,4 C0,6 2.055,10.055 4,12 C5.945,13.945 10,16 12,16 C12,16 15,14 15,13 C15,12 12,9 11,10 Z" id="Icon-Path"></path>
                </g>
                <rect id="ViewBox" x="0" y="0" width="16" height="16"></rect>
            </g>
        </g>
    </g>
</svg>