<?xml version="1.0" encoding="UTF-8"?>
<svg width="12px" height="12px" viewBox="0 0 12 12" version="1.1" xmlns="http://www.w3.org/2000/svg" xmlns:xlink="http://www.w3.org/1999/xlink">
    <!-- Generator: Sketch 53.2 (72643) - https://sketchapp.com -->
    <title>ion-ios-close</title>
    <desc>Created with Sketch.</desc>
    <g id="Page-1" stroke="none" stroke-width="1" fill="none" fill-rule="evenodd">
        <g id="false" transform="translate(-795.000000, -336.000000)" fill-rule="nonzero">
            <g id="ion-ios-close" transform="translate(785.000000, 326.000000)">
                <g id="Icon" fill="#495156">
                    <path d="M17.4125,16 L21.675,11.7375 C22.0625,11.35 22.0625,10.7125 21.675,10.325 C21.2875,9.9375 20.65,9.9375 20.2625,10.325 L16,14.5875 L11.7375,10.325 C11.35,9.9375 10.7125,9.9375 10.325,10.325 C10.13125,10.51875 10.03125,10.775 10.03125,11.03125 C10.03125,11.2875 10.13125,11.54375 10.325,11.7375 L14.5875,16 L10.325,20.2625 C10.13125,20.45625 10.03125,20.7125 10.03125,20.96875 C10.03125,21.225 10.13125,21.48125 10.325,21.675 C10.7125,22.0625 11.35,22.0625 11.7375,21.675 L16,17.4125 L20.2625,21.675 C20.65,22.0625 21.2875,22.0625 21.675,21.675 C22.0625,21.2875 22.0625,20.65 21.675,20.2625 L17.4125,16 Z" id="Icon-Path"></path>
                </g>
                <rect id="ViewBox" x="0" y="0" width="32" height="32"></rect>
            </g>
        </g>
    </g>
</svg>