<?xml version="1.0" encoding="UTF-8"?>
<svg width="14px" height="14px" viewBox="0 0 14 14" version="1.1" xmlns="http://www.w3.org/2000/svg" xmlns:xlink="http://www.w3.org/1999/xlink">
    <!-- Generator: Sketch 53.2 (72643) - https://sketchapp.com -->
    <title>jam-flower</title>
    <desc>Created with Sketch.</desc>
    <g id="Page-1" stroke="none" stroke-width="1" fill="none" fill-rule="evenodd">
        <g id="single-room" transform="translate(-446.000000, -836.000000)" fill-rule="nonzero">
            <g id="jam-flower" transform="translate(445.000000, 835.000000)">
                <g id="Icon" fill="#C2C2C2">
                    <path d="M6.06266667,8.72666667 C6.13442111,8.6193958 6.21140281,8.51571524 6.29333333,8.416 C6.11509191,8.07988025 6.02214636,7.70512195 6.02266667,7.32466667 C5.10859551,6.41792059 5.10143635,4.94223895 6.00666667,4.02666667 C6.01682445,2.75228326 7.04761372,1.72179079 8.322,1.712 C8.76121544,1.25632292 9.36710884,0.999233467 10,1 C10.6286667,1 11.1993333,1.24866667 11.6186667,1.65333333 C12.2397118,1.65031984 12.836393,1.89473627 13.276855,2.33257122 C13.7173169,2.77040618 13.9652983,3.36561458 13.966,3.98666667 C14.412813,4.43178585 14.6647991,5.03597701 14.6666667,5.66666667 C14.6666667,6.3 14.414,6.87533333 14.004,7.29533333 L14.004,7.33333333 C14.0040801,7.95869487 13.7531292,8.55791597 13.3074364,8.99659004 C12.8617435,9.43526411 12.2586148,9.67667246 11.6333333,9.66666667 C11.2126667,10.0786667 10.636,10.3333333 10,10.3333333 C9.36,10.3333333 8.78,10.0753333 8.358,9.658 C7.96660989,9.65860571 7.58139149,9.56046674 7.238,9.37266667 C6.55996935,10.2990632 6.59479831,11.566892 7.32266667,12.4546667 L8.516,13.9106667 C8.66700426,14.0948966 8.70825243,14.3456919 8.62420674,14.5685804 C8.54016104,14.7914689 8.34359002,14.9525886 8.10854007,14.9912471 C7.87349012,15.0299056 7.63567092,14.94023 7.48466667,14.756 L6.29133333,13.3 C6.01469742,12.9631629 5.79737547,12.5817223 5.64866667,12.172 C4.9319798,12.5702237 4.05085344,12.5244072 3.37933333,12.054 C2.734,11.6013333 2.18266667,10.1466667 1.726,7.68933333 C3.82066667,7.80733333 5.19066667,8.09266667 5.83666667,8.54466667 C5.91666667,8.60133333 5.99266667,8.662 6.06333333,8.72733333 L6.06266667,8.72666667 Z M8.906,8.324 L9.29666667,8.71066667 C9.48333333,8.89533333 9.732,9 10,9 C10.2666667,9 10.5133333,8.89733333 10.7,8.714 L11.0973333,8.32466667 L11.654,8.33333333 C12.2233333,8.33333333 12.6706667,7.886 12.6706667,7.33333333 L12.662,6.762 L13.0493333,6.36466667 C13.2313333,6.178 13.3333333,5.932 13.3333333,5.66666667 C13.3333333,5.39333333 13.2246667,5.14 13.0333333,4.952 L12.6293333,4.55666667 L12.6326667,3.992 C12.6326667,3.434 12.1853333,2.986 11.6326667,2.986 L11.084,2.98933333 L10.694,2.61333333 C10.5080932,2.43297514 10.2590168,2.33248323 10,2.33333333 C9.7285769,2.33255922 9.4686587,2.44288594 9.28066667,2.63866667 L8.892,3.04066667 L8.332,3.04533333 C7.78594602,3.04968457 7.34435123,3.49127936 7.34,4.03733333 L7.336,4.57866667 L6.95533333,4.964 C6.77066667,5.15066667 6.66666667,5.39866667 6.66666667,5.66666667 C6.66666667,5.938 6.77333333,6.18866667 6.962,6.37666667 L7.35666667,6.768 L7.35666667,7.324 C7.35666667,7.87628475 7.80438192,8.324 8.35666667,8.324 L8.906,8.324 L8.906,8.324 Z M10,7 C9.26362033,7 8.66666667,6.40304633 8.66666667,5.66666667 C8.66666667,4.930287 9.26362033,4.33333333 10,4.33333333 C10.7363797,4.33333333 11.3333333,4.930287 11.3333333,5.66666667 C11.3333333,6.40304633 10.7363797,7 10,7 Z M4.14466667,10.9613333 C4.50994023,11.1960574 4.99538442,11.1004337 5.24435148,10.7447153 C5.49331854,10.3889969 5.41694151,9.90015487 5.07133333,9.63733333 C4.83266667,9.47 4.27266667,9.31 3.42466667,9.188 C3.70466667,10.232 3.97533333,10.8433333 4.14466667,10.9613333 Z" id="Icon-Shape"></path>
                </g>
                <rect id="ViewBox" x="0" y="0" width="16" height="16"></rect>
            </g>
        </g>
    </g>
</svg>