<?xml version="1.0" encoding="UTF-8"?>
<svg width="16px" height="14px" viewBox="0 0 16 14" version="1.1" xmlns="http://www.w3.org/2000/svg" xmlns:xlink="http://www.w3.org/1999/xlink">
    <!-- Generator: Sketch 53.2 (72643) - https://sketchapp.com -->
    <title>maki-dog-park-11</title>
    <desc>Created with Sketch.</desc>
    <g id="Page-1" stroke="none" stroke-width="1" fill="none" fill-rule="evenodd">
        <g id="single-room" transform="translate(-309.000000, -836.000000)" fill-rule="nonzero">
            <g id="maki-dog-park-11" transform="translate(309.000000, 835.000000)">
                <g id="Icon" fill="#000000">
                    <path d="M10.9090909,1.45454545 C10.9090909,1.45454545 10.4058182,1.50836364 10.1818182,2.18181818 L9.45454545,5.09090909 L12.3636364,7.27272727 L14.5454545,7.27272727 C16,7.27272727 16,5.81818182 16,5.81818182 L13.8181818,3.63636364 C13.0909091,2.90909091 12.3636364,2.90909091 11.6363636,2.90909091 L11.6363636,2.18181818 C11.6363636,2.18181818 11.6363636,1.45454545 10.9090909,1.45454545 Z M3.63636364,2.90909091 C3.63636364,2.90909091 3.12290909,2.89890909 2.58472727,3.168 C2.04654545,3.43709091 1.45454545,4.12072727 1.45454545,5.09090909 L1.45454545,8 C1.45454545,9.45454545 1.45454545,10.1818182 0.727272727,10.1818182 C0.727272727,10.1818182 0,10.1818182 0,10.9090909 L0,13.8181818 C0,13.8181818 0,14.5454545 0.727272727,14.5454545 C1.45454545,14.5454545 1.45454545,13.8181818 1.45454545,13.8181818 L1.45454545,11.6363636 C1.96945455,11.6363636 2.45818182,11.4370909 2.90909091,11.2014545 L2.90909091,13.8181818 C2.90909091,13.8181818 2.90909091,14.5454545 3.63636364,14.5454545 C4.36363636,14.5454545 4.36363636,13.8181818 4.36363636,13.8181818 L4.36363636,10.1818182 L8.72727273,10.1818182 L9.69309091,13.0792727 C10.1818182,14.5454545 10.9090909,14.5454545 10.9090909,14.5454545 L11.6363636,14.5454545 C11.6363636,14.5454545 12.3636364,14.5454545 12.3636364,13.8181818 C12.3636364,13.0909091 11.6363636,13.0909091 11.6363636,13.0909091 L11.6363636,9.45454545 C11.6363636,8.16 10.7170909,7.62909091 10.1818182,7.27272727 L7.99709091,5.81818182 L2.90909091,5.81818182 L2.90909091,5.09090909 C2.90909091,4.60654545 3.04290909,4.56436364 3.23345455,4.46836364 C3.42254545,4.37381818 3.63636364,4.36363636 3.63636364,4.36363636 C4.61963636,4.37818182 4.61963636,2.89454545 3.63636364,2.90909091 Z" id="Icon-Shape"></path>
                </g>
                <rect id="ViewBox" x="0" y="0" width="16" height="16"></rect>
            </g>
        </g>
    </g>
</svg>