<?xml version="1.0" encoding="UTF-8"?>
<svg width="14px" height="10px" viewBox="0 0 14 10" version="1.1" xmlns="http://www.w3.org/2000/svg" xmlns:xlink="http://www.w3.org/1999/xlink">
    <!-- Generator: Sketch 53.2 (72643) - https://sketchapp.com -->
    <title>mdi-room-service</title>
    <desc>Created with Sketch.</desc>
    <g id="Page-1" stroke="none" stroke-width="1" fill="none" fill-rule="evenodd">
        <g id="single-room" transform="translate(-50.000000, -837.000000)" fill-rule="nonzero">
            <g id="mdi-room-service" transform="translate(49.000000, 834.000000)">
                <g id="Icon" fill="#C2C2C2">
                    <path d="M8,3.33333333 C8.43542163,3.33304392 8.84355354,3.54538065 9.09323367,3.9021045 C9.34291381,4.25882835 9.40268308,4.714993 9.25333333,5.124 C11.9646667,5.668 14,7.94266667 14,10.6666667 L2,10.6666667 C2,7.94266667 4.03466667,5.668 6.74666667,5.124 C6.59731692,4.714993 6.65708619,4.25882835 6.90676633,3.9021045 C7.15644646,3.54538065 7.56457837,3.33304392 8,3.33333333 Z M14.6666667,12.6666667 L1.33333333,12.6666667 L1.33333333,11.3333333 L14.6666667,11.3333333 L14.6666667,12.6666667 Z" id="Icon-Shape"></path>
                </g>
                <rect id="ViewBox" x="0" y="0" width="16" height="16"></rect>
            </g>
        </g>
    </g>
</svg>