<?xml version="1.0" encoding="UTF-8"?>
<svg width="10px" height="14px" viewBox="0 0 10 14" version="1.1" xmlns="http://www.w3.org/2000/svg" xmlns:xlink="http://www.w3.org/1999/xlink">
    <!-- Generator: Sketch 53.2 (72643) - https://sketchapp.com -->
    <title>mdi-fridge-filled</title>
    <desc>Created with Sketch.</desc>
    <g id="Page-1" stroke="none" stroke-width="1" fill="none" fill-rule="evenodd">
        <g id="single-room" transform="translate(-312.000000, -871.000000)" fill-rule="nonzero">
            <g id="mdi-fridge-filled" transform="translate(309.000000, 870.000000)">
                <g id="Icon" fill="#272E31">
                    <path d="M4.66666667,1.33333333 L11.3333333,1.33333333 C12.069713,1.33333333 12.6666667,1.930287 12.6666667,2.66666667 L12.6666667,6 L3.33333333,6 L3.33333333,2.66666667 C3.33333333,1.930287 3.930287,1.33333333 4.66666667,1.33333333 Z M12.6666667,12.6666667 C12.6666667,13.4030463 12.069713,14 11.3333333,14 L11.3333333,14.6666667 L10,14.6666667 L10,14 L6,14 L6,14.6666667 L4.66666667,14.6666667 L4.66666667,14 C3.930287,14 3.33333333,13.4030463 3.33333333,12.6666667 L3.33333333,6.66666667 L12.6666667,6.66666667 L12.6666667,12.6666667 Z M5.33333333,3.33333333 L5.33333333,4.66666667 L6.66666667,4.66666667 L6.66666667,3.33333333 L5.33333333,3.33333333 Z M5.33333333,8 L5.33333333,10 L6.66666667,10 L6.66666667,8 L5.33333333,8 Z" id="Icon-Shape"></path>
                </g>
                <rect id="ViewBox" x="0" y="0" width="16" height="16"></rect>
            </g>
        </g>
    </g>
</svg>