<?xml version="1.0" encoding="UTF-8"?>
<svg width="14px" height="13px" viewBox="0 0 14 13" version="1.1" xmlns="http://www.w3.org/2000/svg" xmlns:xlink="http://www.w3.org/1999/xlink">
    <!-- Generator: Sketch 53.2 (72643) - https://sketchapp.com -->
    <title>mdi-food-variant</title>
    <desc>Created with Sketch.</desc>
    <g id="Page-1" stroke="none" stroke-width="1" fill="none" fill-rule="evenodd">
        <g id="single-room" transform="translate(-186.000000, -870.000000)" fill-rule="nonzero">
            <g id="mdi-food-variant" transform="translate(185.000000, 868.000000)">
                <g id="Icon" transform="translate(1.000000, 2.000000)" fill="#272E31">
                    <path d="M13.6666667,10 C13.6666667,11.4727593 12.4727593,12.6666667 11,12.6666667 L9,12.6666667 C7.52724067,12.6666667 6.33333333,11.4727593 6.33333333,10 L6.33333333,8.66666667 L10.8626667,8.66666667 L12.6993333,5.48466667 L13.7386667,6.08466667 L12.248,8.66666667 L13.6666667,8.66666667 L13.6666667,10 Z M5,12.6666667 L0.333333333,12.6666667 C0.333333333,10.6666667 0.333333333,8.66666667 0.555333333,6.55533333 C0.733333333,4.86666667 1.05333333,3.10733333 1.402,1.33333333 L1,1.33333333 L1,0 L4.33333333,0 L4.33333333,1.33333333 L3.932,1.33333333 C4.28,3.10666667 4.6,4.86666667 4.778,6.55533333 C5,8.66666667 5,10.6666667 5,12.6666667 Z" id="Icon-Shape"></path>
                </g>
                <rect id="ViewBox" x="0" y="0" width="16" height="16"></rect>
            </g>
        </g>
    </g>
</svg>