<?xml version="1.0" encoding="UTF-8"?>
<svg width="10px" height="15px" viewBox="0 0 10 15" version="1.1" xmlns="http://www.w3.org/2000/svg" xmlns:xlink="http://www.w3.org/1999/xlink">
    <!-- Generator: Sketch 53.2 (72643) - https://sketchapp.com -->
    <title>typcn-user</title>
    <desc>Created with Sketch.</desc>
    <g id="Page-1" stroke="none" stroke-width="1" fill="none" fill-rule="evenodd">
        <g id="single-room" transform="translate(-269.000000, -466.000000)" fill-rule="nonzero">
            <g id="typcn-user" transform="translate(264.000000, 463.000000)">
                <g id="Icon" fill="#4C5356">
                    <path d="M14.1666667,7.5 C14.1666667,6.34916667 13.7,5.3075 12.9466667,4.55416667 C12.1925,3.8 11.1508333,3.33333333 10,3.33333333 C8.84916667,3.33333333 7.8075,3.8 7.05333333,4.55416667 C6.3,5.3075 5.83333333,6.34916667 5.83333333,7.5 C5.83333333,8.65083333 6.3,9.6925 7.05333333,10.4458333 C7.8075,11.2 8.84916667,11.6666667 10,11.6666667 C11.1508333,11.6666667 12.1925,11.2 12.9466667,10.4458333 C13.7290624,9.66530993 14.1681214,8.60515058 14.1666667,7.5 L14.1666667,7.5 Z M5,15.8333333 C5,16.6666667 6.875,17.5 10,17.5 C12.9316667,17.5 15,16.6666667 15,15.8333333 C15,14.1666667 13.0383333,12.5 10,12.5 C6.875,12.5 5,14.1666667 5,15.8333333 Z" id="Icon-Shape"></path>
                </g>
                <rect id="ViewBox" x="0" y="0" width="20" height="20"></rect>
            </g>
        </g>
    </g>
</svg>