<?xml version="1.0" encoding="UTF-8"?>
<svg width="20px" height="18px" viewBox="0 0 20 18" version="1.1" xmlns="http://www.w3.org/2000/svg" xmlns:xlink="http://www.w3.org/1999/xlink">
    <!-- Generator: Sketch 53.2 (72643) - https://sketchapp.com -->
    <title>uil-bath</title>
    <desc>Created with Sketch.</desc>
    <g id="Page-1" stroke="none" stroke-width="1" fill="none" fill-rule="evenodd">
        <g id="single-room" transform="translate(-398.000000, -464.000000)" fill-rule="nonzero">
            <g id="uil-bath" transform="translate(398.000000, 463.000000)">
                <g id="Icon" fill="#4C5356">
                    <path d="M18.3333333,10 L4.16666667,10 L4.16666667,5.34166667 C4.1606905,4.72996122 4.4944785,4.16541016 5.03333333,3.87583333 C5.32587597,3.71770257 5.65911879,3.6509379 5.99,3.68416667 C5.64655522,4.72398207 5.91611639,5.86857037 6.6875,6.64583333 L7.57083333,7.52916667 C7.72714021,7.68564754 7.93924229,7.77357221 8.16041667,7.77357221 C8.38159104,7.77357221 8.59369312,7.68564754 8.75,7.52916667 L11.6958333,4.58333333 C12.0211516,4.25791679 12.0211516,3.73041654 11.6958333,3.405 L10.8125,2.52166667 C9.79628123,1.50969908 8.19450658,1.38841681 7.0375,2.23583333 C6.01250781,1.83528102 4.85575502,1.96754734 3.94763734,2.5891368 C3.03951967,3.21072625 2.49756725,4.24119166 2.5,5.34166667 L2.5,10 L1.66666667,10 C1.20642938,10 0.833333333,10.373096 0.833333333,10.8333333 C0.833333333,11.2935706 1.20642938,11.6666667 1.66666667,11.6666667 L2.5,11.6666667 L2.5,14.1666667 C2.50313609,15.2227192 3.17059001,16.1624943 4.16666667,16.5133333 L4.16666667,17.5 C4.16666667,17.9602373 4.53976271,18.3333333 5,18.3333333 C5.46023729,18.3333333 5.83333333,17.9602373 5.83333333,17.5 L5.83333333,16.6666667 L14.1666667,16.6666667 L14.1666667,17.5 C14.1666667,17.9602373 14.5397627,18.3333333 15,18.3333333 C15.4602373,18.3333333 15.8333333,17.9602373 15.8333333,17.5 L15.8333333,16.5133333 C16.82941,16.1624943 17.4968639,15.2227192 17.5,14.1666667 L17.5,11.6666667 L18.3333333,11.6666667 C18.7935706,11.6666667 19.1666667,11.2935706 19.1666667,10.8333333 C19.1666667,10.373096 18.7935706,10 18.3333333,10 L18.3333333,10 Z M7.86666667,3.7 C8.35507482,3.21349414 9.14492518,3.21349414 9.63333333,3.7 L9.92833333,3.99416667 L8.16083333,5.76166667 L7.86583333,5.4675 C7.37776048,4.9790893 7.37776048,4.18757737 7.86583333,3.69916667 L7.86666667,3.7 Z M15.8333333,14.1666667 C15.8333333,14.626904 15.4602373,15 15,15 L5,15 C4.53976271,15 4.16666667,14.626904 4.16666667,14.1666667 L4.16666667,11.6666667 L15.8333333,11.6666667 L15.8333333,14.1666667 Z" id="Icon-Shape"></path>
                </g>
                <rect id="ViewBox" x="0" y="0" width="20" height="20"></rect>
            </g>
        </g>
    </g>
</svg>