<?xml version="1.0" encoding="UTF-8"?>
<svg width="16px" height="12px" viewBox="0 0 16 12" version="1.1" xmlns="http://www.w3.org/2000/svg" xmlns:xlink="http://www.w3.org/1999/xlink">
    <!-- Generator: Sketch 53.2 (72643) - https://sketchapp.com -->
    <title>vs-sofa</title>
    <desc>Created with Sketch.</desc>
    <g id="Page-1" stroke="none" stroke-width="1" fill="none" fill-rule="evenodd">
        <g id="single-room" transform="translate(-185.000000, -837.000000)" fill-rule="nonzero">
            <g id="vs-sofa" transform="translate(185.000000, 834.000000)">
                <g id="Icon" transform="translate(0.000000, 3.393939)" fill="#C2C2C2">
                    <path d="M3.88636364,9.36363636 L3.47348485,9.36363636 L3.24242424,9.35984848 L2.98106061,9.34848485 L2.73863636,9.32954545 L2.48863636,9.29545455 L2.27651515,9.24242424 L2.07954545,9.17424242 L1.9469697,9.08333333 L1.9469697,10.1818182 C1.9469697,10.3282828 1.99368687,10.4457071 2.08712121,10.5340909 C2.18055556,10.6224747 2.29545455,10.6666667 2.43181818,10.6666667 L3.40151515,10.6666667 C3.53787879,10.6666667 3.65277778,10.6224747 3.74621212,10.5340909 C3.83964646,10.4457071 3.88636364,10.3282828 3.88636364,10.1818182 L3.88636364,9.36363636 Z M11.6439394,9.36363636 L12.0568182,9.36363636 L12.2878788,9.35984848 L12.5492424,9.34848485 L12.7916667,9.32954545 L13.0416667,9.29545455 L13.2537879,9.24242424 L13.4507576,9.17424242 L13.5833333,9.08333333 L13.5833333,10.1818182 C13.5833333,10.3282828 13.5366162,10.4457071 13.4431818,10.5340909 C13.3497475,10.6224747 13.2348485,10.6666667 13.0984848,10.6666667 L12.1287879,10.6666667 C11.9924242,10.6666667 11.8775253,10.6224747 11.7840909,10.5340909 C11.6906566,10.4457071 11.6439394,10.3282828 11.6439394,10.1818182 L11.6439394,9.36363636 Z M1.46969697,2.90151515 C0.974747475,2.90151515 0.606060606,3.01010101 0.363636364,3.22727273 C0.121212121,3.44444444 0.00252525253,3.74242424 0.00757575758,4.12121212 C0.0126262626,4.55555556 0.10479798,4.88636364 0.284090909,5.11363636 C0.463383838,5.34090909 0.694444444,5.45454545 0.977272727,5.45454545 C0.977272727,5.6969697 0.97979798,5.89646465 0.984848485,6.0530303 C0.98989899,6.20959596 1,6.39267677 1.01515152,6.60227273 C1.03030303,6.81186869 1.05429293,6.98484848 1.08712121,7.12121212 C1.11994949,7.25757576 1.16414141,7.40782828 1.21969697,7.5719697 C1.27525253,7.73611111 1.34469697,7.86868687 1.4280303,7.96969697 C1.51136364,8.07070707 1.61363636,8.17424242 1.73484848,8.28030303 C1.85606061,8.38636364 1.99494949,8.46843434 2.15151515,8.52651515 C2.30808081,8.58459596 2.49116162,8.63257576 2.70075758,8.67045455 C2.91035354,8.70833333 3.14393939,8.72727273 3.40151515,8.72727273 L12.1287879,8.72727273 C12.3863636,8.72727273 12.6199495,8.70833333 12.8295455,8.67045455 C13.0391414,8.63257576 13.2222222,8.58459596 13.3787879,8.52651515 C13.5353535,8.46843434 13.6742424,8.38636364 13.7954545,8.28030303 C13.9166667,8.17424242 14.0189394,8.07070707 14.1022727,7.96969697 C14.1856061,7.86868687 14.2550505,7.73611111 14.3106061,7.5719697 C14.3661616,7.40782828 14.4103535,7.25757576 14.4431818,7.12121212 C14.4760101,6.98484848 14.5,6.81186869 14.5151515,6.60227273 C14.530303,6.39267677 14.540404,6.20959596 14.5454545,6.0530303 C14.5505051,5.89646465 14.5530303,5.6969697 14.5530303,5.45454545 C14.8358586,5.45454545 15.0669192,5.34090909 15.2462121,5.11363636 C15.4255051,4.88636364 15.5176768,4.55555556 15.5227273,4.12121212 C15.5277778,3.74242424 15.4116162,3.44444444 15.1742424,3.22727273 C14.9368687,3.01010101 14.5707071,2.90151515 14.0757576,2.90151515 C13.8282828,2.90151515 13.5959596,2.98989899 13.3787879,3.16666667 C13.1616162,3.34343434 12.9734848,3.57954545 12.8143939,3.875 C12.655303,4.17045455 12.520202,4.48106061 12.4090909,4.80681818 C12.2979798,5.13257576 12.2070707,5.47222222 12.1363636,5.82575758 C10.7929293,5.1540404 9.33712121,4.81818182 7.76893939,4.81818182 C6.20075758,4.81818182 4.74494949,5.1540404 3.40151515,5.82575758 C3.33080808,5.46717172 3.23989899,5.12626263 3.12878788,4.8030303 C3.01767677,4.47979798 2.88383838,4.17045455 2.72727273,3.875 C2.57070707,3.57954545 2.38383838,3.34343434 2.16666667,3.16666667 C1.94949495,2.98989899 1.71717172,2.90151515 1.46969697,2.90151515 Z M3.88636364,0 C3.56313131,0 3.28282828,0.0189393939 3.04545455,0.0568181818 C2.80808081,0.0946969697 2.60479798,0.159090909 2.43560606,0.25 C2.26641414,0.340909091 2.12752525,0.441919192 2.01893939,0.553030303 C1.91035354,0.664141414 1.81944444,0.810606061 1.74621212,0.992424242 C1.6729798,1.17424242 1.61868687,1.35606061 1.58333333,1.53787879 C1.5479798,1.71969697 1.51515152,1.9469697 1.48484848,2.21969697 C1.67676768,2.24494949 1.85353535,2.28535354 2.01515152,2.34090909 C2.17676768,2.39646465 2.31565657,2.45580808 2.43181818,2.51893939 C2.5479798,2.58207071 2.66035354,2.67424242 2.76893939,2.79545455 C2.87752525,2.91666667 2.96338384,3.01893939 3.02651515,3.10227273 C3.08964646,3.18560606 3.16161616,3.31439394 3.24242424,3.48863636 C3.32323232,3.66287879 3.38257576,3.79924242 3.42045455,3.89772727 C3.45833333,3.99621212 3.51641414,4.1540404 3.59469697,4.37121212 C3.6729798,4.58838384 3.73232323,4.75 3.77272727,4.85606061 C5.00505051,4.39141414 6.33712121,4.15909091 7.76893939,4.15909091 C9.20075758,4.15909091 10.5328283,4.39141414 11.7651515,4.85606061 C11.8055556,4.75505051 11.854798,4.62373737 11.9128788,4.46212121 C11.9709596,4.30050505 12.0176768,4.1729798 12.0530303,4.07954545 C12.0883838,3.98611111 12.1338384,3.87121212 12.1893939,3.73484848 C12.2449495,3.59848485 12.2954545,3.48863636 12.3409091,3.40530303 C12.3863636,3.3219697 12.4444444,3.22474747 12.5151515,3.11363636 C12.5858586,3.00252525 12.655303,2.91287879 12.7234848,2.84469697 C12.7916667,2.77651515 12.8724747,2.70328283 12.9659091,2.625 C13.0593434,2.54671717 13.1590909,2.48358586 13.2651515,2.43560606 C13.3712121,2.38762626 13.4911616,2.34469697 13.625,2.30681818 C13.7588384,2.26893939 13.9040404,2.23989899 14.0606061,2.21969697 C14.0252525,1.89646465 13.9823232,1.62878788 13.9318182,1.41666667 C13.8813131,1.20454545 13.8030303,1 13.6969697,0.803030303 C13.5909091,0.606060606 13.4532828,0.454545455 13.2840909,0.348484848 C13.114899,0.242424242 12.895202,0.157828283 12.625,0.0946969697 C12.354798,0.0315656566 12.0277778,0 11.6439394,0 L3.88636364,0 Z" id="Icon-Shape"></path>
                </g>
                <rect id="ViewBox" x="0.00757575758" y="0" width="15.5151515" height="14.5454545"></rect>
            </g>
        </g>
    </g>
</svg>