<?xml version="1.0" encoding="UTF-8"?>
<svg width="18px" height="18px" viewBox="0 0 18 18" version="1.1" xmlns="http://www.w3.org/2000/svg" xmlns:xlink="http://www.w3.org/1999/xlink">
    <!-- Generator: Sketch 53.2 (72643) - https://sketchapp.com -->
    <title>geo-turf-size</title>
    <desc>Created with Sketch.</desc>
    <g id="Page-1" stroke="none" stroke-width="1" fill="none" fill-rule="evenodd">
        <g id="single-room" transform="translate(-485.000000, -465.000000)" fill-rule="nonzero">
            <g id="geo-turf-size" transform="translate(484.000000, 464.000000)">
                <g id="Icon" fill="#4C5356">
                    <path d="M15.3294,6.0706 C15.1084861,6.0706 14.9294,5.8915139 14.9294,5.6706 L14.9294,5.0706 L14.3294,5.0706 C14.1084861,5.0706 13.9294,4.8915139 13.9294,4.6706 C13.9294,4.4496861 14.1084861,4.2706 14.3294,4.2706 L15.3294,4.2706 C15.5503139,4.2706 15.7294,4.4496861 15.7294,4.6706 L15.7294,5.6706 C15.7294,5.8915139 15.5503139,6.0706 15.3294,6.0706 Z" id="Icon-Path"></path>
                    <path d="M12.5976,5.0706 L10.8658,5.0706 C10.6448861,5.0706 10.4658,4.8915139 10.4658,4.6706 C10.4658,4.4496861 10.6448861,4.2706 10.8658,4.2706 L12.5976,4.2706 C12.8185139,4.2706 12.9976,4.4496861 12.9976,4.6706 C12.9976,4.8915139 12.8185139,5.0706 12.5976,5.0706 Z" id="Icon-Path"></path>
                    <path d="M9.134,5.0706 L7.4022,5.0706 C7.1812861,5.0706 7.0022,4.8915139 7.0022,4.6706 C7.0022,4.4496861 7.1812861,4.2706 7.4022,4.2706 L9.134,4.2706 C9.3549139,4.2706 9.534,4.4496861 9.534,4.6706 C9.534,4.8915139 9.3549139,5.0706 9.134,5.0706 Z" id="Icon-Path"></path>
                    <path d="M4.6706,6.0706 C4.4496861,6.0706 4.2706,5.8915139 4.2706,5.6706 L4.2706,4.6706 C4.2706,4.4496861 4.4496861,4.2706 4.6706,4.2706 L5.6706,4.2706 C5.8915139,4.2706 6.0706,4.4496861 6.0706,4.6706 C6.0706,4.8915139 5.8915139,5.0706 5.6706,5.0706 L5.0706,5.0706 L5.0706,5.6706 C5.0706,5.8915139 4.8915139,6.0706 4.6706,6.0706 Z" id="Icon-Path"></path>
                    <path d="M4.6706,12.9976 C4.4496861,12.9976 4.2706,12.8185139 4.2706,12.5976 L4.2706,10.8658 C4.2706,10.6448861 4.4496861,10.4658 4.6706,10.4658 C4.8915139,10.4658 5.0706,10.6448861 5.0706,10.8658 L5.0706,12.5976 C5.0706,12.8185139 4.8915139,12.9976 4.6706,12.9976 Z" id="Icon-Path"></path>
                    <path d="M4.6706,9.534 C4.4496861,9.534 4.2706,9.3549139 4.2706,9.134 L4.2706,7.4022 C4.2706,7.1812861 4.4496861,7.0022 4.6706,7.0022 C4.8915139,7.0022 5.0706,7.1812861 5.0706,7.4022 L5.0706,9.134 C5.0706,9.3549139 4.8915139,9.534 4.6706,9.534 Z" id="Icon-Path"></path>
                    <path d="M5.6706,15.7294 L4.6706,15.7294 C4.4496861,15.7294 4.2706,15.5503139 4.2706,15.3294 L4.2706,14.3294 C4.2706,14.1084861 4.4496861,13.9294 4.6706,13.9294 C4.8915139,13.9294 5.0706,14.1084861 5.0706,14.3294 L5.0706,14.9294 L5.6706,14.9294 C5.8915139,14.9294 6.0706,15.1084861 6.0706,15.3294 C6.0706,15.5503139 5.8915139,15.7294 5.6706,15.7294 Z" id="Icon-Path"></path>
                    <path d="M12.5976,15.7294 L10.8658,15.7294 C10.6448861,15.7294 10.4658,15.5503139 10.4658,15.3294 C10.4658,15.1084861 10.6448861,14.9294 10.8658,14.9294 L12.5976,14.9294 C12.8185139,14.9294 12.9976,15.1084861 12.9976,15.3294 C12.9976,15.5503139 12.8185139,15.7294 12.5976,15.7294 Z" id="Icon-Path"></path>
                    <path d="M9.134,15.7294 L7.4022,15.7294 C7.1812861,15.7294 7.0022,15.5503139 7.0022,15.3294 C7.0022,15.1084861 7.1812861,14.9294 7.4022,14.9294 L9.134,14.9294 C9.3549139,14.9294 9.534,15.1084861 9.534,15.3294 C9.534,15.5503139 9.3549139,15.7294 9.134,15.7294 Z" id="Icon-Path"></path>
                    <path d="M15.3294,15.7294 L14.3294,15.7294 C14.1084861,15.7294 13.9294,15.5503139 13.9294,15.3294 C13.9294,15.1084861 14.1084861,14.9294 14.3294,14.9294 L14.9294,14.9294 L14.9294,14.3294 C14.9294,14.1084861 15.1084861,13.9294 15.3294,13.9294 C15.5503139,13.9294 15.7294,14.1084861 15.7294,14.3294 L15.7294,15.3294 C15.7294,15.5503139 15.5503139,15.7294 15.3294,15.7294 Z" id="Icon-Path"></path>
                    <path d="M15.3294,12.9976 C15.1084861,12.9976 14.9294,12.8185139 14.9294,12.5976 L14.9294,10.8658 C14.9294,10.6448861 15.1084861,10.4658 15.3294,10.4658 C15.5503139,10.4658 15.7294,10.6448861 15.7294,10.8658 L15.7294,12.5976 C15.7294,12.8185139 15.5503139,12.9976 15.3294,12.9976 Z" id="Icon-Path"></path>
                    <path d="M15.3294,9.534 C15.1084861,9.534 14.9294,9.3549139 14.9294,9.134 L14.9294,7.4022 C14.9294,7.1812861 15.1084861,7.0022 15.3294,7.0022 C15.5503139,7.0022 15.7294,7.1812861 15.7294,7.4022 L15.7294,9.134 C15.7294,9.3549139 15.5503139,9.534 15.3294,9.534 Z" id="Icon-Path"></path>
                    <path d="M18.0432,18.4432 L1.9568,18.4432 C1.7358861,18.4432 1.5568,18.2641139 1.5568,18.0432 L1.5568,1.9568 C1.5568,1.7358861 1.7358861,1.5568 1.9568,1.5568 L18.0432,1.5568 C18.2641139,1.5568 18.4432,1.7358861 18.4432,1.9568 L18.4432,18.0432 C18.4432,18.2641139 18.2641139,18.4432 18.0432,18.4432 L18.0432,18.4432 Z M2.3568,17.6432 L17.6432,17.6432 L17.6432,2.3568 L2.3568,2.3568 L2.3568,17.6432 L2.3568,17.6432 Z" id="Icon-Shape"></path>
                </g>
                <rect id="ViewBox" x="0" y="0" width="20" height="20"></rect>
            </g>
        </g>
    </g>
</svg>