<?xml version="1.0" encoding="UTF-8"?>
<svg width="50px" height="50px" viewBox="0 0 50 50" version="1.1" xmlns="http://www.w3.org/2000/svg" xmlns:xlink="http://www.w3.org/1999/xlink">
    <!-- Generator: Sketch 53.2 (72643) - https://sketchapp.com -->
    <title>ic-baseline-error-outline</title>
    <desc>Created with Sketch.</desc>
    <g id="Page-1" stroke="none" stroke-width="1" fill="none" fill-rule="evenodd">
        <g id="false" transform="translate(-487.000000, -541.000000)" fill-rule="nonzero">
            <g id="ic-baseline-error-outline" transform="translate(482.000000, 536.000000)">
                <g id="Icon" transform="translate(5.000000, 5.000000)" fill="#DA4545">
                    <path d="M22.5,32.5 L27.5,32.5 L27.5,37.5 L22.5,37.5 L22.5,32.5 Z M22.5,12.5 L27.5,12.5 L27.5,27.5 L22.5,27.5 L22.5,12.5 Z M24.975,0 C11.175,0 0,11.2 0,25 C0,38.8 11.175,50 24.975,50 C38.8,50 50,38.8 50,25 C50,11.2 38.8,0 24.975,0 Z M25,45 C13.95,45 5,36.05 5,25 C5,13.95 13.95,5 25,5 C36.05,5 45,13.95 45,25 C45,36.05 36.05,45 25,45 Z" id="Icon-Shape"></path>
                </g>
                <rect id="ViewBox" x="0" y="0" width="60" height="60"></rect>
            </g>
        </g>
    </g>
</svg>